HIERARCHY
ROOT Hips
{
	OFFSET 0.000000 0.000000 0.000000
	CHANNELS 6 Xposition Yposition Zposition Zrotation Yrotation Xrotation 
	JOINT LHipJoint
	{
		OFFSET 0.000000 0.000000 0.000000
		CHANNELS 3 Zrotation Yrotation Xrotation
		JOINT LeftUpLeg
		{
			OFFSET 1.363060 -1.794630 0.839290
			CHANNELS 3 Zrotation Yrotation Xrotation
			JOINT LeftLeg
			{
				OFFSET 2.448110 -6.726130 0.000000
				CHANNELS 3 Zrotation Yrotation Xrotation
				JOINT LeftFoot
				{
					OFFSET 2.562200 -7.039590 0.000000
					CHANNELS 3 Zrotation Yrotation Xrotation
					JOINT LeftToeBase
					{
						OFFSET 0.157640 -0.433110 2.322550
						CHANNELS 3 Zrotation Yrotation Xrotation
						End Site
						{
							OFFSET 0.000000 0.000000 0.000000
						}
					}
				}
			}
		}
	}
	JOINT RHipJoint
	{
		OFFSET 0.000000 0.000000 0.000000
		CHANNELS 3 Zrotation Yrotation Xrotation
		JOINT RightUpLeg
		{
			OFFSET -1.305520 -1.794630 0.839290
			CHANNELS 3 Zrotation Yrotation Xrotation
			JOINT RightLeg
			{
				OFFSET -2.542530 -6.985550 0.000000
				CHANNELS 3 Zrotation Yrotation Xrotation
				JOINT RightFoot
				{
					OFFSET -2.568260 -7.056230 0.000000
					CHANNELS 3 Zrotation Yrotation Xrotation
					JOINT RightToeBase
					{
						OFFSET -0.164730 -0.452590 2.363150
						CHANNELS 3 Zrotation Yrotation Xrotation
						End Site
						{
							OFFSET 0.000000 0.000000 0.000000
						}
					}
				}
			}
		}
	}
	JOINT LowerBack
	{
		OFFSET 0.000000 0.000000 0.000000
		CHANNELS 3 Zrotation Yrotation Xrotation
		JOINT Spine
		{
			OFFSET 0.028270 2.035590 -0.193380
			CHANNELS 3 Zrotation Yrotation Xrotation
			JOINT Spine1
			{
				OFFSET 0.056720 2.048850 -0.042750
				CHANNELS 3 Zrotation Yrotation Xrotation
				JOINT Neck
				{
					OFFSET 0.000000 0.000000 0.000000
					CHANNELS 3 Zrotation Yrotation Xrotation
					JOINT Neck1
					{
						OFFSET -0.054170 1.746240 0.172020
						CHANNELS 3 Zrotation Yrotation Xrotation
						JOINT Head
						{
							OFFSET 0.104070 1.761360 -0.123970
							CHANNELS 3 Zrotation Yrotation Xrotation
							End Site
							{
								OFFSET 0.000000 0.000000 0.000000
							}
						}
					}
				}
				JOINT LeftShoulder
				{
					OFFSET 0.000000 0.000000 0.000000
					CHANNELS 3 Zrotation Yrotation Xrotation
					JOINT LeftArm
					{
						OFFSET 3.362410 1.200890 -0.311210
						CHANNELS 3 Zrotation Yrotation Xrotation
						JOINT LeftForeArm
						{
							OFFSET 4.983000 -0.000000 -0.000000
							CHANNELS 3 Zrotation Yrotation Xrotation
							JOINT LeftHand
							{
								OFFSET 3.483560 -0.000000 -0.000000
								CHANNELS 3 Zrotation Yrotation Xrotation
								JOINT LeftFingerBase
								{
									OFFSET 0.000000 0.000000 0.000000
									CHANNELS 3 Zrotation Yrotation Xrotation
									JOINT LeftHandIndex1
									{
										OFFSET 0.715260 -0.000000 -0.000000
										CHANNELS 3 Zrotation Yrotation Xrotation
										End Site
										{
											OFFSET 0.000000 0.000000 0.000000
										}
									}
								}
								JOINT LThumb
								{
									OFFSET 0.000000 0.000000 0.000000
									CHANNELS 3 Zrotation Yrotation Xrotation
									End Site
									{
										OFFSET 0.000000 0.000000 0.000000
									}
								}
							}
						}
					}
				}
				JOINT RightShoulder
				{
					OFFSET 0.000000 0.000000 0.000000
					CHANNELS 3 Zrotation Yrotation Xrotation
					JOINT RightArm
					{
						OFFSET -3.136600 1.374050 -0.404650
						CHANNELS 3 Zrotation Yrotation Xrotation
						JOINT RightForeArm
						{
							OFFSET -5.241900 -0.000000 -0.000000
							CHANNELS 3 Zrotation Yrotation Xrotation
							JOINT RightHand
							{
								OFFSET -3.444170 -0.000000 -0.000000
								CHANNELS 3 Zrotation Yrotation Xrotation
								JOINT RightFingerBase
								{
									OFFSET 0.000000 0.000000 0.000000
									CHANNELS 3 Zrotation Yrotation Xrotation
									JOINT RightHandIndex1
									{
										OFFSET -0.622530 -0.000000 -0.000000
										CHANNELS 3 Zrotation Yrotation Xrotation
										End Site
										{
											OFFSET 0.000000 0.000000 0.000000
										}
									}
								}
								JOINT RThumb
								{
									OFFSET 0.000000 0.000000 0.000000
									CHANNELS 3 Zrotation Yrotation Xrotation
									End Site
									{
										OFFSET 0.000000 0.000000 0.000000
									}
								}
							}
						}
					}
				}
			}
		}
	}
}
MOTION
Frames: 7
Frame Time: 0.016667
-1.489396 16.994930 23.866851 0.187721 9.287954 7.240900 -19.258963 -1.517785 -10.527739 -4.256700 -6.050866 -17.365484 -4.129685 6.212285 15.188594 -0.497010 0.216227 -0.416328 0.000000 0.000000 0.000000 12.519487 -10.511104 7.591122 3.384256 8.585579 -9.251345 13.467650 -19.516561 40.029695 25.409486 -29.856219 0.556177 0.000000 0.000000 0.000000 7.204798 6.073767 7.431731 -9.073251 1.373663 -16.388519 -15.267837 5.331030 3.647158 10.375921 1.776636 -16.469219 3.450223 0.210834 4.963767 0.000000 0.000000 0.000000 -13.108065 4.438661 7.742782 -36.803735 0.673301 -0.488224 -16.143711 -4.571619 0.015959 -0.486444 -0.455391 0.007981 -0.486551 -0.455385 -0.000000 0.000000 0.000000 0.000000 0.000000 0.000000 0.000000 -11.458470 3.866436 17.232107 66.120306 8.487839 -12.094415 -179.098091 89.536176 178.755788 -8.312545 5.849494 -0.631406 -8.436412 5.799050 0.000000 0.000000 0.000000 0.000000 0.000000 0.000000 0.000000 
-1.488390 17.014422 24.058824 0.277600 8.963844 7.195872 -19.332098 -1.464301 -10.491179 -3.693354 -5.921860 -17.776466 -4.602615 7.183375 17.181990 -0.502830 -0.143024 -1.824850 0.000000 0.000000 0.000000 12.613546 -10.457374 7.687407 3.233568 8.567010 -9.051245 13.276910 -19.112896 40.297227 26.738576 -32.321662 1.751602 0.000000 0.000000 0.000000 7.226962 6.048771 7.322843 -9.294453 1.223301 -16.448695 -15.653732 5.419547 3.885300 10.657696 1.911102 -16.745342 3.577351 0.231946 4.986825 0.000000 0.000000 0.000000 -14.121310 4.266675 7.678023 -35.698975 0.680681 -0.421122 -15.869995 -4.514032 0.016742 -0.495714 -0.479560 0.008372 -0.495823 -0.479556 -0.000000 0.000000 0.000000 0.000000 0.000000 0.000000 0.000000 -11.086885 4.300910 17.657208 65.964562 8.029126 -9.109017 -173.874541 89.236187 178.770959 -8.316209 6.882702 -0.624342 -8.452021 6.830732 0.000000 0.000000 0.000000 0.000000 0.000000 0.000000 0.000000 
-1.488697 17.034716 24.248606 0.460208 8.653757 7.099213 -19.087429 -1.330279 -10.646172 -3.749034 -5.839361 -17.816100 -4.829498 8.047806 19.050543 -0.534036 -0.319399 -2.792053 0.000000 0.000000 0.000000 12.647103 -10.492841 7.899554 3.018574 8.553473 -8.877349 13.134565 -18.664684 40.467028 27.959835 -34.675037 2.788206 0.000000 0.000000 0.000000 7.071365 5.993335 7.267001 -9.498362 1.052590 -16.553693 -15.976229 5.507402 4.168226 11.119710 2.049437 -17.040516 3.622606 0.252314 4.999945 0.000000 0.000000 0.000000 -15.262881 4.082484 7.603717 -34.431600 0.700661 -0.338045 -15.535058 -4.490138 0.017967 -0.503027 -0.496512 0.008984 -0.503141 -0.496512 -0.000000 0.000000 0.000000 0.000000 0.000000 0.000000 0.000000 -10.701743 4.792043 18.066446 65.554567 7.481025 -5.593445 -167.860007 88.797331 178.793787 -8.197710 8.152055 -0.613729 -8.349357 8.098473 0.000000 0.000000 0.000000 0.000000 0.000000 0.000000 0.000000 
-1.489057 17.053371 24.435306 0.647755 8.320973 7.008554 -18.769046 -1.159398 -10.811573 -3.957756 -5.785654 -17.763297 -4.953131 8.813622 20.747145 -0.566939 -0.426864 -3.579503 0.000000 0.000000 0.000000 12.689619 -10.549612 8.142878 2.783122 8.542759 -8.716890 12.999008 -18.175566 40.590773 29.077498 -36.883646 3.660377 0.000000 0.000000 0.000000 6.840743 5.915246 7.208312 -9.699212 0.861099 -16.700077 -16.234279 5.603882 4.480647 11.779486 2.204317 -17.294919 3.582030 0.273889 4.969246 0.000000 0.000000 0.000000 -16.464153 3.984373 7.490399 -33.105583 0.719819 -0.250682 -15.301043 -4.452258 0.019261 -0.502378 -0.504907 0.009632 -0.502495 -0.504914 -0.000000 0.000000 0.000000 0.000000 0.000000 0.000000 0.000000 -10.388498 5.242320 18.492259 65.012714 6.883207 -1.793115 -161.445175 88.099313 178.834445 -7.900909 9.660309 -0.594592 -8.072123 9.605603 -0.000000 0.000000 0.000000 0.000000 0.000000 0.000000 0.000000 
-1.488997 17.069866 24.618903 0.829815 7.986188 6.930567 -18.396764 -0.948814 -10.976616 -4.290621 -5.761827 -17.641656 -4.993364 9.478510 22.279386 -0.599392 -0.498368 -4.245011 0.000000 0.000000 0.000000 12.748658 -10.628009 8.416188 2.530507 8.543261 -8.575412 12.880112 -17.658301 40.668212 30.113981 -38.939808 4.360806 0.000000 0.000000 0.000000 6.540630 5.804228 7.133037 -9.925551 0.629008 -16.862595 -16.452199 5.690280 4.847232 12.748852 2.377584 -17.572150 3.418943 0.294962 4.912318 0.000000 0.000000 0.000000 -17.671923 3.999346 7.307299 -31.734187 0.698803 -0.155011 -15.147557 -4.409278 0.020802 -0.494540 -0.505742 0.010403 -0.494660 -0.505756 -0.000000 0.000000 0.000000 0.000000 0.000000 0.000000 0.000000 -10.340397 5.699231 18.993513 64.799074 6.373313 1.977054 -154.791084 87.389169 178.924692 -7.342671 11.538124 -0.551205 -7.535962 11.483844 -0.000000 0.000000 0.000000 0.000000 0.000000 0.000000 0.000000 
-1.490511 17.087245 24.797489 0.977590 7.648209 6.902693 -18.081773 -0.733846 -11.074605 -4.556685 -5.766346 -17.577830 -4.973427 10.040700 23.642837 -0.621491 -0.565807 -4.805250 0.000000 0.000000 0.000000 12.917388 -10.647201 8.671900 2.205520 8.509484 -8.480254 12.772397 -17.139187 40.717913 31.062744 -40.895457 4.961394 0.000000 0.000000 0.000000 6.176519 5.641975 7.036927 -10.179039 0.327333 -17.070994 -16.667790 5.788145 5.267305 14.161064 2.612820 -17.830885 3.127928 0.321319 4.796314 0.000000 0.000000 0.000000 -19.057400 4.100345 7.043513 -30.177658 0.647843 -0.060274 -15.143698 -4.339031 0.022400 -0.479817 -0.503583 0.011202 -0.479933 -0.503606 -0.000000 0.000000 0.000000 0.000000 0.000000 0.000000 0.000000 -10.554048 6.178751 19.551796 64.821019 5.933447 6.366640 -146.381372 86.810503 179.143453 -6.168510 14.069881 -0.444203 -6.379651 14.022429 -0.000000 0.000000 0.000000 0.000000 0.000000 0.000000 0.000000 
-1.494229 17.105288 24.971148 1.098044 7.318305 6.922995 -17.841544 -0.508163 -11.097449 -4.755434 -5.805064 -17.585792 -4.880463 10.497702 24.857307 -0.632051 -0.658841 -5.303326 0.000000 0.000000 0.000000 13.233900 -10.593435 8.906646 1.821295 8.432711 -8.431881 12.569150 -16.628141 40.771238 31.909273 -42.712193 5.470062 0.000000 0.000000 0.000000 5.736247 5.426509 6.894601 -10.451032 -0.045838 -17.348477 -16.880282 5.901895 5.749405 16.037246 2.934519 -17.941129 2.708297 0.355369 4.602382 0.000000 0.000000 0.000000 -20.639101 4.250408 6.731767 -28.423299 0.610146 0.032696 -15.269599 -4.256801 0.024276 -0.458951 -0.499250 0.012140 -0.459055 -0.499285 -0.000000 0.000000 0.000000 0.000000 0.000000 0.000000 0.000000 -11.030391 6.616107 20.070898 64.872996 5.660624 11.702263 -134.756747 86.553260 179.695559 -3.739000 17.367972 -0.169788 -3.923039 17.343449 -0.000000 0.000000 0.000000 0.000000 0.000000 0.000000 0.000000 
